<!--?xml version="1.0" encoding="utf-8"?-->
<!-- Generator: Adobe Illustrator 18.1.1, SVG Export Plug-In . SVG Version: 6.00 Build 0)  -->

<svg version="1.1" id="_x32_" xmlns="http://www.w3.org/2000/svg" xmlns:xlink="http://www.w3.org/1999/xlink" x="0px" y="0px" viewBox="0 0 512 512" style="width: 256px; height: 256px; opacity: 1;" xml:space="preserve">
<style type="text/css">
	.st0{fill:#4B4B4B;}
</style>
<g>
	<path class="st0" d="M427,44.899h-2.713v27.229c0,17.038-13.862,30.907-30.914,30.907c-17.038,0-30.914-13.87-30.914-30.907V44.899
		h-75.552v27.229c0,17.038-13.877,30.907-30.915,30.907c-17.038,0-30.914-13.87-30.914-30.907V44.899h-75.552v27.229
		c0,17.038-13.876,30.907-30.914,30.907c-17.038,0-30.914-13.87-30.914-30.907V44.899h-2.698c-37.082,0-67.133,30.058-67.133,67.133
		v51.283h476.268v-51.283C494.134,74.958,464.067,44.899,427,44.899z" style="fill: rgb(255, 255, 255);"></path>
	<path class="st0" d="M17.866,444.867c0,37.074,30.05,67.133,67.133,67.133H427c37.067,0,67.134-30.058,67.134-67.133v-257.87
		H17.866V444.867z M204.108,267.113c0-2.374,1.712-4.093,4.086-4.093h95.612c2.375,0,4.101,1.72,4.101,4.093v16.953
		c0,1.881-0.231,3.23-0.802,4.633l-48.908,122.817c-0.894,2.066-1.88,3.161-4.594,3.161h-20.661c-1.295,0-2.344-0.516-2.96-1.442
		c-0.37-0.571-0.879-1.789-0.108-3.616l47.46-121.029h-46.349v16.344c0,2.374-1.727,4.093-4.086,4.093h-18.703
		c-2.374,0-4.086-1.719-4.086-4.093V267.113z" style="fill: rgb(255, 255, 255);"></path>
	<path class="st0" d="M118.627,89.297c9.483,0,17.176-7.686,17.176-17.169v-54.96C135.803,7.686,128.109,0,118.627,0
		c-9.482,0-17.176,7.686-17.176,17.169v54.96C101.451,81.611,109.145,89.297,118.627,89.297z" style="fill: rgb(255, 255, 255);"></path>
	<path class="st0" d="M256.007,89.297c9.483,0,17.177-7.686,17.177-17.169v-54.96C273.184,7.686,265.49,0,256.007,0
		c-9.483,0-17.176,7.686-17.176,17.169v54.96C238.831,81.611,246.525,89.297,256.007,89.297z" style="fill: rgb(255, 255, 255);"></path>
	<path class="st0" d="M393.388,89.297c9.482,0,17.176-7.686,17.176-17.169v-54.96C410.564,7.686,402.87,0,393.388,0
		c-9.482,0-17.176,7.686-17.176,17.169v54.96C376.212,81.611,383.906,89.297,393.388,89.297z" style="fill: rgb(255, 255, 255);"></path>
</g>
</svg>
