<!--?xml version="1.0" encoding="utf-8"?-->
<!-- Generator: Adobe Illustrator 15.1.0, SVG Export Plug-In . SVG Version: 6.00 Build 0)  -->

<svg version="1.1" id="_x32_" xmlns="http://www.w3.org/2000/svg" xmlns:xlink="http://www.w3.org/1999/xlink" x="0px" y="0px" width="512px" height="512px" viewBox="0 0 512 512" style="width: 256px; height: 256px; opacity: 1;" xml:space="preserve">
<style type="text/css">

	.st0{fill:#4B4B4B;}

</style>
<g>
	<path class="st0" d="M256,118.125c-76.156,0-137.875,61.719-137.875,137.875S179.844,393.875,256,393.875
		S393.875,332.156,393.875,256S332.156,118.125,256,118.125z" style="fill: rgb(222, 222, 222);"></path>
	<rect x="235.906" class="st0" width="40.156" height="77.297" style="fill: rgb(222, 222, 222);"></rect>
	<rect x="235.906" y="434.703" class="st0" width="40.156" height="77.297" style="fill: rgb(222, 222, 222);"></rect>
	
		<rect x="63.657" y="82.229" transform="matrix(0.7071 0.7071 -0.7071 0.7071 102.3047 -42.376)" class="st0" width="77.296" height="40.15" style="fill: rgb(222, 222, 222);"></rect>
	<polygon class="st0" points="368.156,396.547 422.828,451.219 451.219,422.813 396.563,368.156 	" style="fill: rgb(222, 222, 222);"></polygon>
	<rect y="235.906" class="st0" width="77.281" height="40.156" style="fill: rgb(222, 222, 222);"></rect>
	<polygon class="st0" points="434.688,235.922 434.688,276.078 512,276.063 512,235.906 	" style="fill: rgb(222, 222, 222);"></polygon>
	<polygon class="st0" points="60.781,422.813 89.156,451.219 143.813,396.547 115.438,368.156 	" style="fill: rgb(222, 222, 222);"></polygon>
	<polygon class="st0" points="451.219,89.156 422.813,60.781 368.156,115.438 396.563,143.844 	" style="fill: rgb(222, 222, 222);"></polygon>
</g>
</svg>
