<svg id="Capa_1" enable-background="new 0 0 510.118 510.118" height="512" viewBox="0 0 510.118 510.118" width="512" xmlns="http://www.w3.org/2000/svg"><g><path d="m465 45.058v30.125h-15.173l-29.743-30.125h-303.486-.145v.162l-26.669 29.808v.155h-44.667v-30.125h-45.117v89.666h45.117v-14.127h44.667v29.294h15v-29.294h30.668v284.795h-30.668v-210.501h-15v225.501h45.668v44.668h314.998v-344.463h14.55v14.127h45.118v-89.666zm-51.186 15 21.636 21.913v263.421h-30.499v15h30.499v14.998h-284.998v-14.998h209.499v-15h-209.499v-270.378l-13.466-14.956zm-293.75 3.623 10.356 11.502h-20.648zm-105.064-3.623h15.117v59.666h-15.117zm30.117 45.539v-15.414h90.335v15.414zm105.335 344.463v-59.67h284.998v59.67zm299.998-359.877h14.55v15.414h-14.55zm44.668 29.541h-15.118v-59.666h15.118z"/><path d="m89.784 164.891h15v15h-15z"/><path d="m374.951 345.392h15v15h-15z"/></g></svg>