<?xml version="1.0" encoding="iso-8859-1"?>
<!-- Generator: Adobe Illustrator 19.0.0, SVG Export Plug-In . SVG Version: 6.00 Build 0)  -->
<svg version="1.1" id="Layer_1" xmlns="http://www.w3.org/2000/svg" xmlns:xlink="http://www.w3.org/1999/xlink" x="0px" y="0px"
	 viewBox="0 0 511.991 511.991" style="enable-background:new 0 0 511.991 511.991;" xml:space="preserve">
<g>
	<g>
		<path d="M255.383,159.997c-29.421,0-53.342,23.922-53.342,53.335c-0.001,29.406,23.921,53.328,53.342,53.328
			c29.398,0,53.335-23.922,53.335-53.328C308.717,183.919,284.78,159.997,255.383,159.997z M255.383,245.332
			c-17.656,0-31.999-14.359-31.999-32c0-17.648,14.343-31.999,31.999-31.999c0.141,0,0.266,0.008,0.406,0.008
			c-5.796,0.109-10.453,4.836-10.453,10.656c0,5.891,4.766,10.664,10.656,10.664c5.906,0,10.672-4.773,10.672-10.664
			c0-5.68-4.438-10.305-10.031-10.633c17.055,0.656,30.742,14.742,30.742,31.968C287.375,230.973,273.031,245.332,255.383,245.332z"
			/>
	</g>
</g>
<g>
	<g>
		<path d="M445.09,243.793c-9.75-12.781-23.843-19.828-39.748-19.828h-27.25c10.062-19.195,15.781-41.038,15.781-64.21
			c0-14.772-2.344-28.999-6.625-42.351c17.312-11.453,28.749-31.093,28.749-53.405C415.997,28.656,387.342,0,351.998,0
			c-22.093,0-41.593,11.211-53.092,28.258c-13.688-4.531-28.32-6.992-43.523-6.992c-14.843,0-29.124,2.344-42.515,6.656
			C201.337,11.07,181.962,0,159.994,0c-35.343,0-63.998,28.656-63.998,63.999c0,21.875,10.984,41.171,27.718,52.718
			c-4.422,13.547-6.828,28.008-6.828,43.038c0,23.172,5.703,45.015,15.765,64.21h-25.984c-15.89,0-30.015,7.047-39.749,19.828
			c-8.766,11.491-13.578,27.188-13.578,44.188s4.812,32.701,13.578,44.186c9.734,12.797,23.859,19.828,39.749,19.828h30.203
			c-0.5,7.75-0.703,15.156-0.641,22.375c-17.765,13.281-29.562,36.498-29.562,62.967c0,41.219,28.656,74.654,63.999,74.654
			c12.062,0,23.343-3.904,32.983-10.654h104.693c9.656,6.75,20.938,10.654,32.999,10.654c35.344,0,64-33.436,64-74.654
			c0-26.469-11.812-49.686-29.562-62.967c0.062-7.219-0.156-14.625-0.656-22.375h30.219c15.905,0,29.998-7.031,39.748-19.828
			c8.75-11.484,13.562-27.186,13.562-44.186S453.84,255.284,445.09,243.793z M351.998,21.336c23.531,0,42.656,19.141,42.656,42.663
			c0,13.336-6.156,25.25-15.75,33.078c-1.656-3.234-3.406-6.398-5.312-9.477c6.406-5.852,10.406-14.258,10.406-23.602
			c0-17.671-14.312-31.999-32-31.999c-9.25,0-17.562,3.922-23.405,10.195c-3.062-1.914-6.219-3.719-9.438-5.391
			C326.999,27.359,338.81,21.336,351.998,21.336z M362.653,63.999c0.001,2.219-0.655,4.273-1.843,5.984
			c-4.531-5.312-9.438-10.289-14.719-14.867c1.688-1.125,3.719-1.781,5.906-1.781C357.872,53.335,362.653,58.116,362.653,63.999z
			 M255.383,42.602c31.273-0.001,60.71,12.178,82.834,34.311c22.125,22.125,34.312,51.546,34.312,82.842
			c0,31.289-12.188,60.71-34.312,82.835c-3.719,3.719-7.655,7.156-11.749,10.297c-0.188-0.148-0.406-0.289-0.594-0.43
			c-2.969-1.977-6.719-2.344-10-0.977l-45.976,19.055c-4.031-2.453-8.766-3.875-13.828-3.875c-5.109,0-9.875,1.445-13.921,3.938
			l-46.124-19.117c-3.281-1.367-7.031-1-10,0.977c-0.406,0.273-0.781,0.57-1.141,0.883c-4.328-3.266-8.453-6.852-12.343-10.75
			c-22.14-22.125-34.312-51.546-34.312-82.835c0-31.296,12.172-60.717,34.312-82.842C194.665,54.781,224.087,42.602,255.383,42.602z
			 M282.281,288.496l26.999-11.188v32.061l-26.999-11.201c0.281-1.578,0.469-3.188,0.469-4.828
			C282.75,291.683,282.562,290.058,282.281,288.496z M261.398,293.34c0,2.937-2.39,5.312-5.328,5.312
			c-2.937,0-5.328-2.375-5.328-5.312c0-2.953,2.391-5.344,5.328-5.344C259.008,287.996,261.398,290.387,261.398,293.34z
			 M229.837,298.073l-27.218,11.295v-32.06l27.218,11.281c-0.281,1.531-0.438,3.125-0.438,4.75
			C229.399,294.948,229.555,296.527,229.837,298.073z M149.337,63.999c0-5.883,4.781-10.664,10.656-10.664
			c1.891,0,3.641,0.484,5.172,1.344c-5.172,4.453-10.031,9.281-14.515,14.453C149.823,67.608,149.337,65.858,149.337,63.999z
			 M132.227,96.352c-9.107-7.83-14.888-19.423-14.888-32.353c0-23.522,19.14-42.663,42.655-42.663c13,0,24.64,5.836,32.468,15.016
			c-3.25,1.656-6.422,3.453-9.516,5.352c-5.812-5.984-13.937-9.703-22.953-9.703c-17.671,0-32,14.328-32,31.999
			c0,8.953,3.688,17.047,9.625,22.852C135.696,89.946,133.899,93.11,132.227,96.352z M101.964,330.306
			c-7.25-1.093-13.312-4.812-18.078-11.062c-5.938-7.812-9.218-18.904-9.218-31.264c0-12.36,3.281-23.461,9.218-31.259
			c4.766-6.265,10.828-9.968,18.078-11.069c5.219,6.867,15.375,22.742,15.375,42.328
			C117.339,307.556,107.183,323.447,101.964,330.306z M199.728,476.242c-7.969,9.297-18.297,14.406-29.062,14.406
			c-10.766,0-21.078-5.109-29.046-14.406c-8.781-10.25-13.625-24.062-13.625-38.906c0-14.875,4.844-28.688,13.625-38.92
			c7.969-9.297,18.281-14.422,29.046-14.422c10.765,0,21.093,5.125,29.062,14.422c8.765,10.232,13.609,24.045,13.609,38.92
			C213.337,452.18,208.493,465.992,199.728,476.242z M383.998,437.336c0,14.844-4.844,28.656-13.594,38.906
			c-8,9.297-18.312,14.406-29.062,14.406c-10.78,0-21.093-5.109-29.062-14.406c-8.78-10.25-13.624-24.062-13.624-38.906
			c0-14.875,4.844-28.688,13.624-38.92c7.969-9.297,18.281-14.422,29.062-14.422c10.75,0,21.062,5.125,29.062,14.422
			C379.154,408.648,383.998,422.461,383.998,437.336z M384.872,330.649h-33.031l1.126,11.689c0.719,7.531,1.156,14.781,1.375,21.875
			c-4.219-1.031-8.562-1.562-13-1.562c-35.343,0-63.998,33.438-63.998,74.686c0,15.844,4.25,30.562,11.469,42.656h-65.617
			c7.234-12.094,11.468-26.812,11.468-42.656c0-41.248-28.656-74.686-63.999-74.686c-4.453,0-8.797,0.531-12.984,1.562
			c0.188-7.094,0.641-14.344,1.359-21.875l1.109-11.688h-33.03c5.875-10.641,11.546-25.404,11.546-42.67
			c0-17.266-5.672-32.032-11.546-42.68h19.359c9.718,12.352,21.484,23.016,34.796,31.461v48.576c0,3.562,1.781,6.875,4.75,8.859
			c1.781,1.188,3.844,1.797,5.922,1.797c1.391,0,2.766-0.266,4.078-0.812l46.124-19.125c4.047,2.5,8.812,3.938,13.921,3.938
			c5.062,0,9.797-1.406,13.828-3.875l45.976,19.062c1.312,0.547,2.688,0.812,4.062,0.812c2.094,0,4.156-0.609,5.938-1.797
			c2.969-1.984,4.75-5.297,4.75-8.859v-49.311c12.843-8.336,24.218-18.727,33.655-30.727h20.594
			c-5.875,10.647-11.531,25.414-11.531,42.68C373.341,305.245,378.997,320.008,384.872,330.649z M428.122,319.244
			c-4.781,6.266-10.875,9.969-18.125,11.062c-5.187-6.781-15.343-22.531-15.343-42.326c0-19.594,10.188-35.484,15.374-42.328
			c7.25,1.102,13.312,4.805,18.094,11.069c5.937,7.798,9.218,18.899,9.218,31.259C437.34,300.34,434.058,311.432,428.122,319.244z"
			/>
	</g>
</g>
<g>
	<g>
		<path d="M288,106.662c-5.875,0-10.656,4.781-10.656,10.672s4.75,10.664,10.656,10.664s10.656-4.773,10.656-10.664
			S293.906,106.662,288,106.662z"/>
	</g>
</g>
<g>
	<g>
		<path d="M223.993,106.662c-5.875,0-10.656,4.781-10.656,10.672s4.765,10.664,10.656,10.664c5.906,0,10.671-4.773,10.671-10.664
			S229.897,106.662,223.993,106.662z"/>
	</g>
</g>
<g>
</g>
<g>
</g>
<g>
</g>
<g>
</g>
<g>
</g>
<g>
</g>
<g>
</g>
<g>
</g>
<g>
</g>
<g>
</g>
<g>
</g>
<g>
</g>
<g>
</g>
<g>
</g>
<g>
</g>
</svg>
