<svg id="Capa_1" enable-background="new 0 0 512 512" height="512" viewBox="0 0 512 512" width="512" xmlns="http://www.w3.org/2000/svg"><g><circle cx="211.412" cy="462.346" r="10"/><circle cx="464.506" cy="280.043" r="10"/><path d="m464.506 314.44c-5.533 0-10.02 4.486-10.02 10.02v127.867h-198.486c-5.533 0-10.02 4.486-10.02 10.02s4.486 10.02 10.02 10.02h198.486v9.798c0 5.402-4.395 9.797-9.797 9.797h-377.377c-5.403 0-9.798-4.395-9.798-9.797v-221.71l85.19 81.893c5.733 5.511 13.167 8.348 20.667 8.348 5.525 0 11.087-1.54 16.029-4.685l275.087-175.055v64.672c0 5.534 4.486 10.02 10.02 10.02 5.533 0 10.02-4.486 10.02-10.02v-157.705c0-16.452-13.385-29.837-29.837-29.837h-13.857v-18.027c-.001-16.575-13.485-30.059-30.06-30.059h-124.733c-7.693 0-14.717 2.908-20.04 7.678-5.322-4.77-12.346-7.678-20.039-7.678h-124.734c-16.575 0-30.059 13.484-30.059 30.059v18.027h-13.856c-16.452 0-29.838 13.385-29.838 29.837v404.24c0 16.452 13.386 29.837 29.838 29.837h377.378c16.452 0 29.837-13.385 29.837-29.837v-157.704c-.001-5.533-4.487-10.019-10.021-10.019zm-295.866 14.664c-3.823 2.433-8.78 1.941-12.049-1.203l-88.361-84.941 345.404-69.76zm107.4-309.065h124.734c5.524 0 10.02 4.495 10.02 10.02v27.989c0 .02-.003.038-.003.058s.003.039.003.058v25.948c0 5.525-4.495 10.02-10.02 10.02h-124.734c-5.524 0-10.02-4.495-10.02-10.02v-54.053c0-5.525 4.495-10.02 10.02-10.02zm-164.813 0h124.735c5.524 0 10.02 4.495 10.02 10.02v54.053c0 5.525-4.495 10.02-10.02 10.02h-124.735c-5.524 0-10.02-4.495-10.02-10.02v-25.929c0-.026.004-.051.004-.077s-.004-.051-.004-.077v-27.97c0-5.525 4.495-10.02 10.02-10.02zm-43.915 48.086h13.856v15.987c0 16.574 13.484 30.059 30.059 30.059h124.735c7.693 0 14.717-2.908 20.039-7.678 5.322 4.77 12.346 7.678 20.039 7.678h124.734c16.574 0 30.059-13.484 30.059-30.059v-15.987h13.857c5.402 0 9.797 4.395 9.797 9.798v66.581l-396.974 80.177v-146.758c0-5.402 4.396-9.798 9.799-9.798z"/></g></svg>