<svg height="512pt" viewBox="0 0 512 512" width="512pt" xmlns="http://www.w3.org/2000/svg"><path d="m482 20c-13.035156 0-24.152344 8.359375-28.28125 20h-73.71875c0-22.054688-17.945312-40-40-40-22.097656 0-40 17.898438-40 40h-40c0-22.054688-17.945312-40-40-40-22.097656 0-40 17.898438-40 40h-40c0-22.054688-17.945312-40-40-40-22.097656 0-40 17.898438-40 40h-50c-5.523438 0-10 4.476562-10 10s4.476562 9.988281 10 9.988281h50c0 11.03125-8.972656 20.011719-20 20.011719h-30c-5.523438 0-10 4.476562-10 10v146c0 5.523438 4.476562 10 10 10s10-4.476562 10-10v-136h20c22.054688 0 40-17.945312 40-40v-20c0-11.046875 8.953125-20 20-20 11.027344 0 20 8.972656 20 20v20c0 22.097656 17.898438 40 40 40 22.054688 0 40-17.945312 40-40v-20c0-11.046875 8.953125-20 20-20 11.027344 0 20 8.972656 20 20v20c0 22.097656 17.898438 40 40 40 22.054688 0 40-17.945312 40-40v-20c0-11.046875 8.953125-20 20-20 11.027344 0 20 8.972656 20 20v432c0 11.046875-8.953125 20-20 20-11.027344 0-20-8.972656-20-20 0-29.230469 0-221.292969 0-262 0-5.523438-4.476562-10-10-10s-10 4.476562-10 10v207.355469c-6.015625-3.488281-12.863281-5.355469-20-5.355469-7.28125 0-14.113281 1.964844-20 5.382812v-287.382812c0-5.523438-4.476562-10-10-10s-10 4.476562-10 10v342c0 11.046875-8.953125 20-20 20-11.027344 0-20-8.972656-20-20 0-29.230469 0-221.292969 0-262 0-5.523438-4.476562-10-10-10s-10 4.476562-10 10v207.355469c-6.015625-3.488281-12.863281-5.355469-20-5.355469-7.28125 0-14.113281 1.964844-20 5.382812v-287.382812c0-5.523438-4.476562-10-10-10s-10 4.476562-10 10v342c0 11.046875-8.953125 20-20 20-11.027344 0-20-8.972656-20-20 0-29.230469 0-221.292969 0-262 0-5.523438-4.476562-10-10-10s-10 4.476562-10 10v207.382812c-5.886719-3.417968-12.71875-5.382812-20-5.382812h-20v-96c0-5.523438-4.476562-10-10-10s-10 4.476562-10 10v106c0 5.523438 4.476562 10 10 10h30c11.027344 0 20 8.972656 20 20v20c0 22.054688 17.945312 40 40 40 22.097656 0 40-17.898438 40-40v-20c0-11.027344 8.972656-20 20-20 11.042969 0 20 8.953125 20 20v20c0 22.054688 17.945312 40 40 40 22.097656 0 40-17.898438 40-40v-20c0-11.027344 8.972656-20 20-20 11.042969 0 20 8.953125 20 20v20c0 22.054688 17.945312 40 40 40 22.097656 0 40-17.898438 40-40v-412h73.71875c4.128906 11.640625 15.246094 20 28.28125 20 16.542969 0 30-13.457031 30-30s-13.457031-30-30-30zm-322 60c-11.042969 0-20-8.964844-20-20.011719h40c0 11.03125-8.972656 20.011719-20 20.011719zm120 0c-11.042969 0-20-8.964844-20-20.011719h40c0 11.03125-8.972656 20.011719-20 20.011719zm202-20c-5.515625 0-10-4.484375-10-10s4.484375-10 10-10 10 4.484375 10 10-4.484375 10-10 10zm0 0"/><path d="m20 276c0 5.523438-4.476562 10-10 10s-10-4.476562-10-10 4.476562-10 10-10 10 4.476562 10 10zm0 0"/></svg>