<svg height="512pt" viewBox="0 0 512 512.01589" width="512pt" xmlns="http://www.w3.org/2000/svg"><path d="m508.214844 26.691406c3.359375-6.554687 2.066406-14.535156-3.191406-19.695312-5.15625-5.261719-13.136719-6.550782-19.691407-3.1875l-25.558593 12.777344c-52.949219-11.265626-106.957032-16.824219-161.089844-16.5781255-54.136719-.2460935-108.140625 5.3124995-161.09375 16.5781255l-25.558594-12.777344c-6.550781-3.367188-14.535156-2.078125-19.691406 3.1875-5.257813 5.160156-6.550782 13.140625-3.191406 19.699218l12.785156 25.566407c-1.375 6.046875-4.492188 20.6875-7.707032 41.914062-21.128906 3.183594-35.851562 6.335938-41.96875 7.746094l-25.523437-12.761719c-6.558594-3.367187-14.542969-2.070312-19.703125 3.195313-5.261719 5.15625-6.558594 13.136719-3.199219 19.695312l12.765625 25.527344c-11.269531 52.953125-16.828125 106.960937-16.582031 161.097656-.246094 54.132813 5.3125 108.140625 16.582031 161.089844l-12.765625 25.53125c-3.359375 6.5625-2.0625 14.542969 3.199219 19.703125 5.160156 5.261719 13.144531 6.558594 19.703125 3.195312l25.523437-12.761718c52.949219 11.265625 106.957032 16.824218 161.089844 16.574218 54.136719.246094 108.144532-5.3125 161.09375-16.578124l25.523438 12.761718c6.570312 3.285156 14.503906 1.996094 19.699218-3.195312 5.195313-5.191406 6.484376-13.125 3.203126-19.699219l-12.769532-25.527344c1.410156-6.117187 4.5625-20.84375 7.746094-41.972656 21.230469-3.210937 35.871094-6.324219 41.921875-7.707031l25.566406 12.789062c2.394531 1.207032 5.035157 1.839844 7.714844 1.847656 5.898437-.050781 11.355469-3.136718 14.4375-8.164062 3.085937-5.03125 3.359375-11.292969.730469-16.570312l-12.78125-25.554688c11.269531-52.953125 16.828125-106.960938 16.582031-161.097656.246094-54.132813-5.3125-108.140625-16.582031-161.089844zm-128.914063 452.082032c-1.820312-.917969-3.910156-1.144532-5.886719-.644532-52.578124 11.441406-106.253906 17.078125-160.066406 16.8125-53.808594.253906-107.484375-5.382812-160.066406-16.8125-1.976562-.492187-4.0625-.265625-5.886719.648438l-28.296875 14.152344 14.152344-28.304688c.910156-1.824219 1.136719-3.910156.640625-5.886719-11.4375-52.582031-17.074219-106.253906-16.808594-160.0625-.25-53.808593 5.386719-107.484375 16.8125-160.066406.496094-1.976563.269531-4.066406-.644531-5.890625l-14.152344-28.292969 28.300782 14.148438c1.824218.910156 3.910156 1.136719 5.886718.644531 52.582032-11.4375 106.253906-17.078125 160.0625-16.8125 53.8125-.25 107.484375 5.386719 160.066406 16.8125 1.976563.492188 4.0625.261719 5.886719-.644531l28.296875-14.15625-14.148437 28.304687c-.910157 1.824219-1.140625 3.910156-.640625 5.886719 6.574218 29.527344 11.113281 59.46875 13.589844 89.617187l.015624.179688c1.144532 12.761719 2.066407 26.527344 2.621094 41.175781v.03125c.351563 9.382813.582032 19.046875.582032 29.0625.25 53.808594-5.386719 107.484375-16.8125 160.066407-.496094 1.972656-.269532 4.0625.640624 5.882812l14.152344 28.300781zm98.835938-105.367188c-.496094 1.976562-.269531 4.0625.644531 5.886719l14.183594 28.316406-28.332032-14.167969c-1.820312-.90625-3.902343-1.136718-5.875-.648437-.160156.039062-14.421874 3.550781-38.480468 7.367187 1.5-11.855468 2.898437-25.089844 4.003906-39.542968l40.351562-20.175782c4.214844-2.109375 5.925782-7.234375 3.816407-11.449218-2.109375-4.214844-7.234375-5.925782-11.449219-3.816407l-31.445312 15.722657c.40625-7.738282.707031-15.738282.898437-23.996094l38.1875-19.132813c2.726563-1.363281 4.515625-4.082031 4.695313-7.125.179687-3.042969-1.28125-5.953125-3.824219-7.628906-2.546875-1.675781-5.796875-1.867187-8.519531-.503906l-30.320313 15.191406c-.007813-8.039063-.164063-15.832031-.394531-23.457031l38.347656-19.132813c2.726562-1.359375 4.523438-4.074219 4.710938-7.117187.183593-3.042969-1.265626-5.953125-3.808594-7.636719-2.542969-1.683594-5.792969-1.882813-8.519532-.519531l-31.496093 15.710937c-.425781-7.90625-.953125-15.472656-1.546875-22.773437l40.667968-20.335938c2.726563-1.363281 4.519532-4.078125 4.703126-7.121094.179687-3.046874-1.273438-5.953124-3.816407-7.632812-2.546875-1.679688-5.792969-1.875-8.519531-.511719l-34.707031 17.351563c-.824219-7.914063-1.714844-15.355469-2.636719-22.265625l44.976562-22.488281c2.726563-1.363282 4.519532-4.078126 4.703126-7.121094.179687-3.042969-1.273438-5.953125-3.816407-7.632813-2.546875-1.679687-5.792969-1.875-8.519531-.511719l-39.9375 19.96875c-1.648438-10.441406-3.234375-19.03125-4.550781-25.574218l43.585937-21.792969c4.214844-2.109375 5.925782-7.234375 3.816406-11.449219-2.109374-4.21875-7.234374-5.925781-11.449218-3.816406l-33.996094 16.996094 8.394531-16.785156c1.785157-3.597657 2.222657-7.714844 1.226563-11.605469l32.007812-16.003907c4.214844-2.105468 5.925782-7.234374 3.816406-11.449218-2.109374-4.214844-7.234374-5.925782-11.449218-3.816406l-37.261719 18.628906c-3.789063-.855469-7.761719-.378906-11.238281 1.355468l-25.527344 12.761719c-3.875-.890625-11.261719-2.492187-21.457031-4.347656l26.308593-13.132813c2.8125-1.3125 4.6875-4.042968 4.90625-7.140624.214844-3.09375-1.265624-6.0625-3.867187-7.75-2.605469-1.6875-5.917969-1.832032-8.65625-.375l-47.644531 23.78125c-7.410156-1.03125-15.445313-2.03125-24.105469-2.964844l28.179687-14.089844c4.21875-2.105469 5.925782-7.234375 3.816407-11.449219-2.105469-4.214843-7.234375-5.921875-11.449219-3.816406l-51.199219 25.601563c-.449219.28125-.867187.609374-1.253906.976562-8.933594-.605469-18.265625-1.074219-27.988281-1.40625l19.804687-9.90625c4.21875-2.105469 5.925781-7.234375 3.816407-11.449219-2.105469-4.214843-7.234376-5.921875-11.449219-3.816406l-49.605469 24.804687c-7.8125.105469-15.414062.3125-22.808594.621094l20.316406-10.15625c4.214844-2.109375 5.921876-7.234375 3.816407-11.449218-2.109375-4.214844-7.234375-5.925782-11.453125-3.816407l-51.199219 25.597657c-1.183594.621093-2.199219 1.515624-2.964844 2.609374-9.441406.878907-18.257812 1.859376-26.429687 2.894532 3.8125-24.054688 7.320312-38.316406 7.363281-38.476563.488281-1.972656.257813-4.058593-.652344-5.875l-14.183593-28.320312 28.332031 14.164062c1.824219.910157 3.910156 1.140625 5.886719.648438 52.582031-11.441407 106.257812-17.078125 160.066406-16.8125 53.808594-.253907 107.484375 5.382812 160.066406 16.8125 1.976562.488281 4.058594.257812 5.882812-.648438l28.316407-14.179687-14.164063 28.332031c-.914062 1.824219-1.140625 3.914063-.644531 5.886719 11.4375 52.582031 17.074219 106.253906 16.808594 160.0625.25 53.808594-5.386719 107.484375-16.8125 160.066406zm0 0"/><path d="m168.183594 181.707031c-1.601563-1.601562-3.769532-2.5-6.035156-2.5-2.261719 0-4.433594.898438-6.03125 2.5l-17.132813 17.132813c-6.914063-3.421875-15.023437-3.421875-21.9375 0l-17.132813-17.132813c-3.347656-3.234375-8.667968-3.1875-11.960937.105469s-3.335937 8.613281-.105469 11.960938l17.132813 17.132812c-3.417969 6.914062-3.417969 15.023438 0 21.9375l-17.132813 17.132812c-2.214844 2.140626-3.105468 5.3125-2.324218 8.296876.78125 2.984374 3.109374 5.3125 6.09375 6.09375 2.984374.78125 6.15625-.109376 8.296874-2.328126l17.132813-17.128906c6.914063 3.417969 15.023437 3.417969 21.9375 0l17.132813 17.128906c3.347656 3.234376 8.667968 3.191407 11.960937-.101562s3.339844-8.613281.105469-11.960938l-17.132813-17.132812c3.421875-6.914062 3.421875-15.023438 0-21.9375l17.132813-17.132812c1.601562-1.597657 2.5-3.769532 2.5-6.03125 0-2.265626-.898438-4.433594-2.5-6.035157zm-46.105469 46.261719-.0625-.09375-.097656-.0625c-3.25-3.292969-3.25-8.585938 0-11.875l.097656-.0625.0625-.097656c3.292969-3.25 8.582031-3.25 11.875 0l.0625.097656.097656.0625c3.25 3.289062 3.25 8.582031 0 11.875l-.097656.0625-.0625.09375c-3.292969 3.25-8.582031 3.25-11.875 0zm0 0"/><path d="m338.847656 181.707031c-1.597656-1.601562-3.769531-2.5-6.03125-2.5-2.265625 0-4.433594.898438-6.035156 2.5l-17.128906 17.132813c-6.914063-3.421875-15.027344-3.421875-21.9375 0l-17.132813-17.132813c-3.347656-3.234375-8.671875-3.1875-11.960937.105469-3.292969 3.292969-3.339844 8.613281-.105469 11.960938l17.132813 17.132812c-3.421876 6.914062-3.421876 15.023438 0 21.9375l-17.132813 17.132812c-2.21875 2.140626-3.109375 5.3125-2.328125 8.296876.78125 2.984374 3.113281 5.3125 6.097656 6.09375 2.980469.78125 6.15625-.109376 8.296875-2.328126l17.132813-17.128906c6.910156 3.417969 15.023437 3.417969 21.9375 0l17.128906 17.128906c3.351562 3.234376 8.671875 3.191407 11.964844-.101562 3.289062-3.292969 3.335937-8.613281.101562-11.960938l-17.128906-17.132812c3.417969-6.914062 3.417969-15.023438 0-21.9375l17.128906-17.132812c1.601563-1.597657 2.5-3.769532 2.5-6.03125 0-2.265626-.898437-4.433594-2.5-6.035157zm-46.101562 46.261719-.0625-.09375-.097656-.0625c-3.25-3.292969-3.25-8.585938 0-11.875l.097656-.0625.0625-.097656c3.289062-3.25 8.582031-3.25 11.875 0l.0625.097656.09375.0625c3.25 3.289062 3.25 8.582031 0 11.875l-.09375.0625-.0625.09375c-3.292969 3.25-8.585938 3.25-11.875 0zm0 0"/><path d="m168.183594 335.308594c-1.601563-1.601563-3.769532-2.5-6.035156-2.5-2.261719 0-4.433594.898437-6.03125 2.5l-17.132813 17.132812c-6.914063-3.421875-15.023437-3.421875-21.9375 0l-17.132813-17.132812c-3.347656-3.234375-8.667968-3.1875-11.960937.105468-3.292969 3.289063-3.335937 8.613282-.105469 11.960938l17.132813 17.132812c-3.417969 6.910157-3.417969 15.023438 0 21.933594l-17.132813 17.132813c-2.214844 2.144531-3.105468 5.316406-2.324218 8.300781.78125 2.980469 3.109374 5.3125 6.09375 6.09375 2.984374.78125 6.15625-.109375 8.296874-2.328125l17.132813-17.132813c6.914063 3.421876 15.023437 3.421876 21.9375 0l17.132813 17.132813c3.347656 3.234375 8.667968 3.1875 11.960937-.105469 3.292969-3.289062 3.339844-8.613281.105469-11.960937l-17.132813-17.132813c3.421875-6.910156 3.421875-15.023437 0-21.933594l17.132813-17.132812c1.601562-1.601562 2.5-3.769531 2.5-6.035156 0-2.261719-.898438-4.433594-2.5-6.03125zm-46.105469 46.261718-.0625-.097656-.097656-.0625c-3.25-3.289062-3.25-8.582031 0-11.871094l.097656-.0625.0625-.097656c3.292969-3.25 8.582031-3.25 11.875 0l.0625.097656.097656.0625c3.25 3.289063 3.25 8.582032 0 11.871094l-.097656.0625-.0625.097656c-3.292969 3.25-8.582031 3.25-11.875 0zm0 0"/><path d="m338.847656 335.308594c-1.597656-1.601563-3.769531-2.5-6.03125-2.5-2.265625 0-4.433594.898437-6.035156 2.5l-17.128906 17.132812c-6.914063-3.421875-15.027344-3.421875-21.9375 0l-17.132813-17.132812c-3.347656-3.234375-8.671875-3.1875-11.960937.105468-3.292969 3.289063-3.339844 8.613282-.105469 11.960938l17.132813 17.132812c-3.421876 6.910157-3.421876 15.023438 0 21.933594l-17.132813 17.132813c-2.21875 2.144531-3.109375 5.316406-2.328125 8.300781.78125 2.980469 3.113281 5.3125 6.097656 6.09375 2.980469.78125 6.15625-.109375 8.296875-2.328125l17.132813-17.132813c6.910156 3.421876 15.023437 3.421876 21.9375 0l17.128906 17.132813c3.351562 3.234375 8.671875 3.1875 11.964844-.105469 3.289062-3.289062 3.335937-8.613281.101562-11.960937l-17.128906-17.132813c3.417969-6.910156 3.417969-15.023437 0-21.933594l17.128906-17.132812c1.601563-1.601562 2.5-3.769531 2.5-6.035156 0-2.261719-.898437-4.433594-2.5-6.03125zm-46.101562 46.261718-.0625-.097656-.097656-.0625c-3.25-3.289062-3.25-8.582031 0-11.871094l.097656-.0625.0625-.097656c3.289062-3.25 8.582031-3.25 11.875 0l.0625.097656.09375.0625c3.25 3.289063 3.25 8.582032 0 11.871094l-.09375.0625-.0625.097656c-3.292969 3.25-8.585938 3.25-11.875 0zm0 0"/></svg>