<svg id="Capa_1" enable-background="new 0 0 512 512" height="512" viewBox="0 0 512 512" width="512" xmlns="http://www.w3.org/2000/svg"><g><path d="m397 512h-282c-40.506 0-73.46-32.954-73.46-73.46v-10.63c0-4.142 3.357-7.5 7.5-7.5s7.5 3.358 7.5 7.5v10.63c0 32.235 26.225 58.46 58.46 58.46h282c32.235 0 58.46-26.225 58.46-58.46v-365.08c0-32.235-26.225-58.46-58.46-58.46h-282c-32.235 0-58.46 26.225-58.46 58.46v324.45c0 4.142-3.357 7.5-7.5 7.5s-7.5-3.358-7.5-7.5v-324.45c0-40.506 32.954-73.46 73.46-73.46h282c40.506 0 73.46 32.954 73.46 73.46v365.08c0 40.506-32.954 73.46-73.46 73.46z"/><path d="m397 482h-282c-23.964 0-43.46-19.496-43.46-43.46v-365.08c0-23.964 19.496-43.46 43.46-43.46h245.78c4.143 0 7.5 3.358 7.5 7.5s-3.357 7.5-7.5 7.5h-245.78c-15.692 0-28.46 12.767-28.46 28.46v365.08c0 15.693 12.768 28.46 28.46 28.46h282c15.692 0 28.46-12.767 28.46-28.46v-365.08c0-15.693-12.768-28.46-28.46-28.46h-6.22c-4.143 0-7.5-3.358-7.5-7.5s3.357-7.5 7.5-7.5h6.22c23.964 0 43.46 19.496 43.46 43.46v365.08c0 23.964-19.496 43.46-43.46 43.46z"/><g><g><g><path d="m145.219 194.705c-4.143 0-7.5-3.358-7.5-7.5v-16.811c0-4.142 3.357-7.5 7.5-7.5s7.5 3.358 7.5 7.5v16.811c0 4.142-3.358 7.5-7.5 7.5z"/><path d="m145.219 243.755c-4.143 0-7.5-3.358-7.5-7.5v-16.811c0-4.142 3.357-7.5 7.5-7.5s7.5 3.358 7.5 7.5v16.811c0 4.142-3.358 7.5-7.5 7.5z"/><path d="m178.149 210.825h-16.811c-4.143 0-7.5-3.358-7.5-7.5s3.357-7.5 7.5-7.5h16.811c4.143 0 7.5 3.358 7.5 7.5s-3.357 7.5-7.5 7.5z"/><path d="m129.1 210.825h-16.811c-4.143 0-7.5-3.358-7.5-7.5s3.357-7.5 7.5-7.5h16.811c4.143 0 7.5 3.358 7.5 7.5s-3.358 7.5-7.5 7.5z"/></g><g><path d="m256 194.705c-4.143 0-7.5-3.358-7.5-7.5v-16.811c0-4.142 3.357-7.5 7.5-7.5s7.5 3.358 7.5 7.5v16.811c0 4.142-3.357 7.5-7.5 7.5z"/><path d="m256 243.755c-4.143 0-7.5-3.358-7.5-7.5v-16.811c0-4.142 3.357-7.5 7.5-7.5s7.5 3.358 7.5 7.5v16.811c0 4.142-3.357 7.5-7.5 7.5z"/><path d="m288.931 210.825h-16.811c-4.143 0-7.5-3.358-7.5-7.5s3.357-7.5 7.5-7.5h16.811c4.143 0 7.5 3.358 7.5 7.5s-3.358 7.5-7.5 7.5z"/><path d="m239.881 210.825h-16.811c-4.143 0-7.5-3.358-7.5-7.5s3.357-7.5 7.5-7.5h16.811c4.143 0 7.5 3.358 7.5 7.5s-3.358 7.5-7.5 7.5z"/></g><g><path d="m366.781 194.705c-4.143 0-7.5-3.358-7.5-7.5v-16.811c0-4.142 3.357-7.5 7.5-7.5s7.5 3.358 7.5 7.5v16.811c0 4.142-3.357 7.5-7.5 7.5z"/><path d="m366.781 243.755c-4.143 0-7.5-3.358-7.5-7.5v-16.811c0-4.142 3.357-7.5 7.5-7.5s7.5 3.358 7.5 7.5v16.811c0 4.142-3.357 7.5-7.5 7.5z"/><path d="m399.712 210.825h-16.812c-4.143 0-7.5-3.358-7.5-7.5s3.357-7.5 7.5-7.5h16.812c4.143 0 7.5 3.358 7.5 7.5s-3.358 7.5-7.5 7.5z"/><path d="m350.661 210.825h-16.811c-4.143 0-7.5-3.358-7.5-7.5s3.357-7.5 7.5-7.5h16.811c4.143 0 7.5 3.358 7.5 7.5s-3.357 7.5-7.5 7.5z"/></g></g><g><g><path d="m145.219 89.354c-4.143 0-7.5-3.358-7.5-7.5v-16.811c0-4.142 3.357-7.5 7.5-7.5s7.5 3.358 7.5 7.5v16.811c0 4.142-3.358 7.5-7.5 7.5z"/><path d="m145.219 138.404c-4.143 0-7.5-3.358-7.5-7.5v-16.811c0-4.142 3.357-7.5 7.5-7.5s7.5 3.358 7.5 7.5v16.811c0 4.142-3.358 7.5-7.5 7.5z"/><path d="m178.149 105.474h-16.811c-4.143 0-7.5-3.358-7.5-7.5s3.357-7.5 7.5-7.5h16.811c4.143 0 7.5 3.358 7.5 7.5s-3.357 7.5-7.5 7.5z"/><path d="m129.1 105.474h-16.811c-4.143 0-7.5-3.358-7.5-7.5s3.357-7.5 7.5-7.5h16.811c4.143 0 7.5 3.358 7.5 7.5s-3.358 7.5-7.5 7.5z"/></g><g><path d="m256 89.354c-4.143 0-7.5-3.358-7.5-7.5v-16.811c0-4.142 3.357-7.5 7.5-7.5s7.5 3.358 7.5 7.5v16.811c0 4.142-3.357 7.5-7.5 7.5z"/><path d="m256 138.404c-4.143 0-7.5-3.358-7.5-7.5v-16.811c0-4.142 3.357-7.5 7.5-7.5s7.5 3.358 7.5 7.5v16.811c0 4.142-3.357 7.5-7.5 7.5z"/><path d="m288.931 105.474h-16.811c-4.143 0-7.5-3.358-7.5-7.5s3.357-7.5 7.5-7.5h16.811c4.143 0 7.5 3.358 7.5 7.5s-3.358 7.5-7.5 7.5z"/><path d="m239.881 105.474h-16.811c-4.143 0-7.5-3.358-7.5-7.5s3.357-7.5 7.5-7.5h16.811c4.143 0 7.5 3.358 7.5 7.5s-3.358 7.5-7.5 7.5z"/></g><g><path d="m366.781 89.354c-4.143 0-7.5-3.358-7.5-7.5v-16.811c0-4.142 3.357-7.5 7.5-7.5s7.5 3.358 7.5 7.5v16.811c0 4.142-3.357 7.5-7.5 7.5z"/><path d="m366.781 138.404c-4.143 0-7.5-3.358-7.5-7.5v-16.811c0-4.142 3.357-7.5 7.5-7.5s7.5 3.358 7.5 7.5v16.811c0 4.142-3.357 7.5-7.5 7.5z"/><path d="m399.712 105.474h-16.812c-4.143 0-7.5-3.358-7.5-7.5s3.357-7.5 7.5-7.5h16.812c4.143 0 7.5 3.358 7.5 7.5s-3.358 7.5-7.5 7.5z"/><path d="m350.661 105.474h-16.811c-4.143 0-7.5-3.358-7.5-7.5s3.357-7.5 7.5-7.5h16.811c4.143 0 7.5 3.358 7.5 7.5s-3.357 7.5-7.5 7.5z"/></g></g><g><g><path d="m145.219 300.056c-4.143 0-7.5-3.358-7.5-7.5v-16.811c0-4.142 3.357-7.5 7.5-7.5s7.5 3.358 7.5 7.5v16.811c0 4.142-3.358 7.5-7.5 7.5z"/><path d="m145.219 349.105c-4.143 0-7.5-3.358-7.5-7.5v-16.811c0-4.142 3.357-7.5 7.5-7.5s7.5 3.358 7.5 7.5v16.811c0 4.143-3.358 7.5-7.5 7.5z"/><path d="m178.149 316.175h-16.811c-4.143 0-7.5-3.358-7.5-7.5s3.357-7.5 7.5-7.5h16.811c4.143 0 7.5 3.358 7.5 7.5s-3.357 7.5-7.5 7.5z"/><path d="m129.1 316.175h-16.811c-4.143 0-7.5-3.358-7.5-7.5s3.357-7.5 7.5-7.5h16.811c4.143 0 7.5 3.358 7.5 7.5s-3.358 7.5-7.5 7.5z"/></g><g><path d="m256 300.056c-4.143 0-7.5-3.358-7.5-7.5v-16.811c0-4.142 3.357-7.5 7.5-7.5s7.5 3.358 7.5 7.5v16.811c0 4.142-3.357 7.5-7.5 7.5z"/><path d="m256 349.105c-4.143 0-7.5-3.358-7.5-7.5v-16.811c0-4.142 3.357-7.5 7.5-7.5s7.5 3.358 7.5 7.5v16.811c0 4.143-3.357 7.5-7.5 7.5z"/><path d="m288.931 316.175h-16.811c-4.143 0-7.5-3.358-7.5-7.5s3.357-7.5 7.5-7.5h16.811c4.143 0 7.5 3.358 7.5 7.5s-3.358 7.5-7.5 7.5z"/><path d="m239.881 316.175h-16.811c-4.143 0-7.5-3.358-7.5-7.5s3.357-7.5 7.5-7.5h16.811c4.143 0 7.5 3.358 7.5 7.5s-3.358 7.5-7.5 7.5z"/></g><g><path d="m366.781 300.056c-4.143 0-7.5-3.358-7.5-7.5v-16.811c0-4.142 3.357-7.5 7.5-7.5s7.5 3.358 7.5 7.5v16.811c0 4.142-3.357 7.5-7.5 7.5z"/><path d="m366.781 349.105c-4.143 0-7.5-3.358-7.5-7.5v-16.811c0-4.142 3.357-7.5 7.5-7.5s7.5 3.358 7.5 7.5v16.811c0 4.143-3.357 7.5-7.5 7.5z"/><path d="m399.712 316.175h-16.812c-4.143 0-7.5-3.358-7.5-7.5s3.357-7.5 7.5-7.5h16.812c4.143 0 7.5 3.358 7.5 7.5s-3.358 7.5-7.5 7.5z"/><path d="m350.661 316.175h-16.811c-4.143 0-7.5-3.358-7.5-7.5s3.357-7.5 7.5-7.5h16.811c4.143 0 7.5 3.358 7.5 7.5s-3.357 7.5-7.5 7.5z"/></g></g><g><g><path d="m145.219 405.407c-4.143 0-7.5-3.358-7.5-7.5v-16.811c0-4.142 3.357-7.5 7.5-7.5s7.5 3.358 7.5 7.5v16.811c0 4.142-3.358 7.5-7.5 7.5z"/><path d="m145.219 454.457c-4.143 0-7.5-3.358-7.5-7.5v-16.811c0-4.142 3.357-7.5 7.5-7.5s7.5 3.358 7.5 7.5v16.811c0 4.142-3.358 7.5-7.5 7.5z"/><path d="m178.149 421.526h-16.811c-4.143 0-7.5-3.358-7.5-7.5s3.357-7.5 7.5-7.5h16.811c4.143 0 7.5 3.358 7.5 7.5s-3.357 7.5-7.5 7.5z"/><path d="m129.1 421.526h-16.811c-4.143 0-7.5-3.358-7.5-7.5s3.357-7.5 7.5-7.5h16.811c4.143 0 7.5 3.358 7.5 7.5s-3.358 7.5-7.5 7.5z"/></g><g><path d="m256 405.407c-4.143 0-7.5-3.358-7.5-7.5v-16.811c0-4.142 3.357-7.5 7.5-7.5s7.5 3.358 7.5 7.5v16.811c0 4.142-3.357 7.5-7.5 7.5z"/><path d="m256 454.457c-4.143 0-7.5-3.358-7.5-7.5v-16.811c0-4.142 3.357-7.5 7.5-7.5s7.5 3.358 7.5 7.5v16.811c0 4.142-3.357 7.5-7.5 7.5z"/><path d="m288.931 421.526h-16.811c-4.143 0-7.5-3.358-7.5-7.5s3.357-7.5 7.5-7.5h16.811c4.143 0 7.5 3.358 7.5 7.5s-3.358 7.5-7.5 7.5z"/><path d="m239.881 421.526h-16.811c-4.143 0-7.5-3.358-7.5-7.5s3.357-7.5 7.5-7.5h16.811c4.143 0 7.5 3.358 7.5 7.5s-3.358 7.5-7.5 7.5z"/></g><g><path d="m366.781 405.407c-4.143 0-7.5-3.358-7.5-7.5v-16.811c0-4.142 3.357-7.5 7.5-7.5s7.5 3.358 7.5 7.5v16.811c0 4.142-3.357 7.5-7.5 7.5z"/><path d="m366.781 454.457c-4.143 0-7.5-3.358-7.5-7.5v-16.811c0-4.142 3.357-7.5 7.5-7.5s7.5 3.358 7.5 7.5v16.811c0 4.142-3.357 7.5-7.5 7.5z"/><path d="m399.712 421.526h-16.812c-4.143 0-7.5-3.358-7.5-7.5s3.357-7.5 7.5-7.5h16.812c4.143 0 7.5 3.358 7.5 7.5s-3.358 7.5-7.5 7.5z"/><path d="m350.661 421.526h-16.811c-4.143 0-7.5-3.358-7.5-7.5s3.357-7.5 7.5-7.5h16.811c4.143 0 7.5 3.358 7.5 7.5s-3.357 7.5-7.5 7.5z"/></g></g></g></g></svg>