<!--?xml version="1.0" encoding="utf-8"?-->
<!-- Generator: Adobe Illustrator 18.1.1, SVG Export Plug-In . SVG Version: 6.00 Build 0)  -->

<svg version="1.1" id="_x32_" xmlns="http://www.w3.org/2000/svg" xmlns:xlink="http://www.w3.org/1999/xlink" x="0px" y="0px" viewBox="0 0 512 512" style="width: 256px; height: 256px; opacity: 1;" xml:space="preserve">
<style type="text/css">
	.st0{fill:#4B4B4B;}
</style>
<g>
	<path class="st0" d="M493.096,112.062L342.135,56.701h-172.26l-1.75,0.641l-147.99,54.27l-1.221,0.444
		C7.344,116.306-0.004,127.242,0,139.112c0,2.204,0.256,4.442,0.781,6.659l15.534,65.609c3.111,13.072,14.76,22.179,28.053,22.185
		l1.702-0.054l48.247-2.865v187.186c0.006,20.698,16.768,37.46,37.46,37.467H380.23c20.692-0.007,37.447-16.776,37.454-37.467
		V230.646l48.41,2.872l1.542,0.048c13.29-0.006,24.942-9.108,28.053-22.179l15.534-65.622c0.518-2.217,0.778-4.448,0.778-6.652
		C512,127.242,504.659,116.313,493.096,112.062z M326.716,77.658c-1.678,5.041-4.195,10.894-8.043,16.652
		c-4.884,7.348-11.775,14.525-21.742,19.962c-9.981,5.43-23.148,9.176-40.93,9.189c-18.062-0.014-31.362-3.882-41.4-9.448
		c-15.005-8.344-23.056-20.78-27.49-31.423c-0.713-1.719-1.296-3.35-1.825-4.932H326.716z M490.824,140.941l-15.528,65.609
		c-0.832,3.561-4.046,6.058-7.662,6.051l-0.504-0.014l0.334,0.02l-70.739-4.202v209.427c-0.013,9.122-7.388,16.489-16.496,16.51
		H131.777c-9.108-0.021-16.486-7.395-16.503-16.51V208.405l-69.484,4.127l-0.935,0.054l-0.488,0.02c-3.619,0-6.819-2.49-7.661-6.064
		l-15.535-65.609l-0.214-1.822c0.004-3.213,2.009-6.235,5.154-7.368l-1.232,0.444L170.977,78.62
		c1.852,6.44,4.908,14.402,10.162,22.574c5.836,9.053,14.405,18.222,26.678,25.03c12.263,6.829,28.125,11.223,48.185,11.209
		c20.061,0.014,35.922-4.38,48.188-11.202c18.44-10.247,28.401-25.686,33.613-38.279c1.384-3.35,2.435-6.481,3.261-9.326
		l144.821,53.111c3.145,1.132,5.158,4.162,5.158,7.374C491.042,139.706,490.974,140.313,490.824,140.941z" style="fill: rgb(0, 0, 0);"></path>
</g>
</svg>
