<!--?xml version="1.0" encoding="utf-8"?-->
<!-- Generator: Adobe Illustrator 18.1.1, SVG Export Plug-In . SVG Version: 6.00 Build 0)  -->

<svg version="1.1" id="_x32_" xmlns="http://www.w3.org/2000/svg" xmlns:xlink="http://www.w3.org/1999/xlink" x="0px" y="0px" viewBox="0 0 512 512" style="width: 256px; height: 256px; opacity: 1;" xml:space="preserve">
<style type="text/css">
	.st0{fill:#4B4B4B;}
</style>
<g>
	<path class="st0" d="M256,0C114.838,0,0.004,114.842,0.004,255.995C0.004,397.149,114.838,512,256,512
		c141.162,0,255.995-114.851,255.995-256.005C511.996,114.842,397.162,0,256,0z M338.47,185.173
		c11.164,0,20.207,9.052,20.207,20.207c0,11.156-9.043,20.208-20.207,20.208c-11.156,0-20.208-9.052-20.208-20.208
		C318.262,194.226,327.314,185.173,338.47,185.173z M240.284,132.507c9.406,0,17.027,7.629,17.027,17.018
		c0,9.405-7.621,17.026-17.027,17.026c-9.388,0-17.009-7.621-17.009-17.026C223.275,140.136,230.895,132.507,240.284,132.507z
		 M256,451.496c-107.575,0-194.82-86.901-195.467-194.311C251.422,88.737,240.861,428.858,450.915,241.71
		c0.344,4.715,0.577,9.474,0.577,14.285C451.492,363.966,363.963,451.496,256,451.496z" style="fill: rgb(75, 75, 75);"></path>
</g>
</svg>
