<svg id="Layer_1_1_" enable-background="new 0 0 64 64" height="512" viewBox="0 0 64 64" width="512" xmlns="http://www.w3.org/2000/svg">
  <path d="m54 2h-44c-1.657 0-3 1.343-3 3v11h50v-11c0-1.657-1.343-3-3-3zm-30 9.2c0 .552-.448 1-1 1h-11c-.552 0-1-.448-1-1v-3.2c0-.552.448-1 1-1h11c.552 0 1 .448 1 1zm14 1.8c-1.657 0-3-1.343-3-3s1.343-3 3-3 3 1.343 3 3-1.343 3-3 3zm8 0h-2v-2h2zm0-4h-2v-2h2zm4 4h-2v-2h2zm0-4h-2v-2h2zm4 4h-2v-2h2zm0-4h-2v-2h2z"/>
  <path d="m40.475 33.688c-1.668-2.664-4.465-4.377-7.594-4.65-.504-.044-.881-.483-.881-.989 0-.592.513-1.053 1.103-.999 3.72.338 7.046 2.374 9.041 5.535.316.501.14 1.168-.388 1.437-.45.231-1.013.095-1.281-.334z"/>
  <path d="m42.597 40.41c-3.701 0-3.701 5.18-7.403 5.18-3.699 0-3.699-5.18-7.398-5.18-3.162 0-3.631 3.772-6.009 4.87 2.114 3.428 5.891 5.72 10.213 5.72 6.057 0 11.052-4.492 11.869-10.324-.375-.156-.784-.266-1.272-.266z"/>
  <circle cx="22" cy="35" r="1"/>
  <circle cx="25" cy="38" r="2"/>
  <path d="m7 18v41c0 1.657 1.343 3 3 3h44c1.657 0 3-1.343 3-3v-41zm25 40c-9.941 0-18-8.059-18-18s8.059-18 18-18 18 8.059 18 18-8.059 18-18 18z"/>
  <path d="m32 24c-8.837 0-16 7.163-16 16s7.163 16 16 16c8.836 0 16-7.164 16-16s-7.164-16-16-16zm0 30c-7.732 0-14-6.268-14-14s6.268-14 14-14 14 6.268 14 14-6.268 14-14 14z"/>
</svg>